<svg xmlns="http://www.w3.org/2000/svg" xmlns:xlink="http://www.w3.org/1999/xlink" viewBox="0 0 657.4 684.5"><defs><style>.cls-1{fill:#1a171b;}.cls-2,.cls-3,.cls-4,.cls-5,.cls-6,.cls-7,.cls-8,.cls-9{opacity:0.3;}.cls-2{fill:url(#linear-gradient);}.cls-3{fill:url(#linear-gradient-2);}.cls-4{fill:url(#linear-gradient-3);}.cls-5{fill:url(#linear-gradient-4);}.cls-6{fill:url(#linear-gradient-5);}.cls-7{fill:url(#linear-gradient-6);}.cls-8{fill:url(#linear-gradient-7);}.cls-9{fill:url(#linear-gradient-8);}.cls-10,.cls-15{fill:#e2001a;}.cls-11,.cls-14{fill:#0037e0;}.cls-12,.cls-13{fill:#fff;}.cls-13,.cls-14{font-size:81.08px;}.cls-13,.cls-14,.cls-15{font-family:MADEGoodTimeGrotesk, MADE GoodTime Grotesk;}.cls-15{font-size:80.69px;}</style><linearGradient id="linear-gradient" x1="479.15" y1="-532.1" x2="474.81" y2="-534.03" gradientTransform="translate(-226.72 516.92) rotate(15.49)" gradientUnits="userSpaceOnUse"><stop offset="0"/><stop offset="0.09" stop-color="#040404"/><stop offset="0.18" stop-color="#101010"/><stop offset="0.27" stop-color="#242424"/><stop offset="0.36" stop-color="#404040"/><stop offset="0.45" stop-color="#646464"/><stop offset="0.51" stop-color="#7e7e7e"/><stop offset="0.56" stop-color="#626262"/><stop offset="0.65" stop-color="#3f3f3f"/><stop offset="0.73" stop-color="#232323"/><stop offset="0.82" stop-color="#101010"/><stop offset="0.91" stop-color="#040404"/><stop offset="1"/></linearGradient><linearGradient id="linear-gradient-2" x1="296.6" y1="-1012.57" x2="292.26" y2="-1014.51" gradientTransform="matrix(0.87, 0.56, -0.74, 0.88, -674.79, 1069.08)" xlink:href="#linear-gradient"/><linearGradient id="linear-gradient-3" x1="-2023.13" y1="1615.96" x2="-2026.23" y2="1614.58" gradientTransform="matrix(0.22, -1.01, 1.09, 0.38, -1080.83, -2398.06)" xlink:href="#linear-gradient"/><linearGradient id="linear-gradient-4" x1="328.71" y1="-1090.04" x2="324.37" y2="-1091.97" gradientTransform="matrix(0.87, 0.56, -0.74, 0.88, -674.79, 1069.08)" xlink:href="#linear-gradient"/><linearGradient id="linear-gradient-5" x1="361.67" y1="-1164.5" x2="357.33" y2="-1166.43" gradientTransform="matrix(0.87, 0.56, -0.74, 0.88, -674.79, 1069.08)" xlink:href="#linear-gradient"/><linearGradient id="linear-gradient-6" x1="292.37" y1="-1212.52" x2="288.03" y2="-1214.45" gradientTransform="matrix(0.87, 0.56, -0.74, 0.88, -674.79, 1069.08)" xlink:href="#linear-gradient"/><linearGradient id="linear-gradient-7" x1="507.69" y1="-642.74" x2="503.35" y2="-644.67" gradientTransform="matrix(0.96, 0.28, -0.28, 0.96, -246.78, 548.87)" xlink:href="#linear-gradient"/><linearGradient id="linear-gradient-8" x1="535.67" y1="-703.87" x2="531.33" y2="-705.81" gradientTransform="matrix(0.96, 0.28, -0.28, 0.96, -246.78, 548.87)" xlink:href="#linear-gradient"/></defs><g id="Capa_2" data-name="Capa 2"><g id="cases"><path class="cls-1" d="M100.74,150.72a12.2,12.2,0,0,1,0-8.86,10.75,10.75,0,0,1,3.07-4.26c4.71-4,41.44-36.75,45.78-40.62a3,3,0,0,1,1.18-.64,5.65,5.65,0,0,1,5.15.89c2.71,2.16.87-.71.87-.71l-.87-1.33a3.81,3.81,0,0,1-.29-.57c-.37-1-1-3.72,1.65-6.6,3.07-3.28,37.57-33.66,43.59-39a11.18,11.18,0,0,1,2.87-1.85c1.6-.7,3.9-1.33,5.88-.47,3.46,1.52.66-1.23.66-1.23h0a3.68,3.68,0,0,1-.95-2.26,5.19,5.19,0,0,1,1.93-4c3.16-3,39.47-34.84,40.8-36l.09-.07A16.38,16.38,0,0,1,261.68,0c5,.07,45,.16,52.49.17a14.92,14.92,0,0,1,3.19.35c2.19.5,5.64,1.7,7.49,4.44,2.11,3.11,2.15,1,2-.28a3,3,0,0,1,.66-2.16A4.34,4.34,0,0,1,330.87,1C333.8.9,380.37.46,391.14.36a16.58,16.58,0,0,1,6.27,1.13c2.24.89,4.75,2.38,5.6,4.74.94,2.59,1.81,1.51,2.4.06a9.24,9.24,0,0,1,7.85-5.9c.27,0,.56,0,.85,0,6.38-.09,57.28-.27,60.62-.28l3,.07C482.4.41,488,2,489.83,7.15s15.83,62.9,17.06,68A2.93,2.93,0,0,1,507,76a19.11,19.11,0,0,1-4.09,10.54c-4.3,5.57-24.73,29.7-24.73,29.7s-.67.84.13,1.22S511,131.87,513.13,132.8l.27.14c.92.53,5.5,3.5,7.55,11.38,2.22,8.51,14.8,61.84,15.56,65.08,0,.11,0,.22.06.33a17.09,17.09,0,0,1-.09,4.1,3.15,3.15,0,0,0,1.34,3.18,8.63,8.63,0,0,1,3.27,4.39c1.74,4.76,15.42,60.45,16.32,64.11a2.65,2.65,0,0,1,.07.48,8.92,8.92,0,0,1-3.85,8.05c-4.36,2.84-59.17,35.76-63.83,38.56a2.9,2.9,0,0,1-.81.34,12.7,12.7,0,0,1-5.79-.34,3.12,3.12,0,0,0-3.65,1.95c-.77,2.06-2.15,4.71-4.4,6.06-3.77,2.26-60,35.73-66.27,39.44a2.87,2.87,0,0,1-1.3.4,17.53,17.53,0,0,1-4.9-.39,3.12,3.12,0,0,0-3.67,2.07c-.63,2-1.69,4.39-3.28,5.32-2.79,1.63-65.82,37.95-71.3,41.1a3.09,3.09,0,0,1-.89.34c-1.55.32-6.22,1-8.68-1.49-3-3-116.13-111.07-116.13-111.07a23.43,23.43,0,0,1-5.34-8.12c-2-5.13-19-54.79-19-54.79s-1.09-2.72,3.24-3.94c3.78-1.06.38-1.47-.57-1.55a1.88,1.88,0,0,0-.41,0c-.7,0-3.34.11-4.14-1.28s-6.75-16.76-8.81-22.06a3.12,3.12,0,0,0-2.58-2L135,219.82a25.8,25.8,0,0,1-6.45-1.56,4.76,4.76,0,0,1-3.13-2.49C124.39,213.75,105,162.23,100.74,150.72Z"/><path class="cls-2" d="M373.5,129.12c-9.3,11.29-16,21.12-15,21.95s9.38-7.64,18.69-18.93,16-21.13,15-22S382.81,117.82,373.5,129.12Z"/><path class="cls-3" d="M332.63,335.42c-15.1,8.49-26.82,16.3-26.18,17.44s13.41-4.81,28.51-13.3,26.82-16.31,26.17-17.45S347.73,326.92,332.63,335.42Z"/><path class="cls-4" d="M244.78,262.17c9.52,7.94,17.73,13.79,18.33,13.07s-6.63-7.74-16.15-15.68-17.73-13.79-18.33-13.06S235.26,254.23,244.78,262.17Z"/><path class="cls-5" d="M418.05,284.88c-15.1,8.5-26.82,16.31-26.18,17.45s13.41-4.81,28.51-13.31,26.82-16.3,26.17-17.44S433.15,276.39,418.05,284.88Z"/><path class="cls-6" d="M502,237.48c-15.1,8.49-26.82,16.3-26.18,17.44s13.41-4.81,28.51-13.3,26.82-16.3,26.18-17.44S517.07,229,502,237.48Z"/><path class="cls-7" d="M477.54,156.18c-15.1,8.49-26.82,16.3-26.18,17.45s13.4-4.82,28.5-13.31S506.69,144,506,142.88,492.64,147.69,477.54,156.18Z"/><path class="cls-8" d="M419,73.72c-9.51,11.13-16.4,20.84-15.41,21.69s9.52-7.47,19-18.6S439,56,438,55.11,428.48,62.59,419,73.72Z"/><path class="cls-9" d="M463.17,23.06c-9.51,11.12-16.4,20.84-15.41,21.69s9.52-7.48,19-18.61S483.18,5.3,482.19,4.45,472.67,11.93,463.17,23.06Z"/><path class="cls-10" d="M252.82,5.29,222.33,31.46s-4.72,4.14,2.48,4.66,48.1,1.7,48.1,1.7a16.42,16.42,0,0,0,8.69-2.62c4.16-2.76,32.62-29.88,32.62-29.88s3.57-3.19-2.5-3.46S263,1.46,263,1.46,257,1.69,252.82,5.29Z"/><path class="cls-11" d="M323.79,6.56,297.86,33.8s-4.72,4.15,2.48,4.67,48.85,1.41,48.85,1.41a16.42,16.42,0,0,0,8.69-2.62C362,34.5,386.51,6.35,386.51,6.35s3.56-3.19-2.5-3.46-50-.16-50-.16A14.83,14.83,0,0,0,323.79,6.56Z"/><path class="cls-10" d="M200.86,50.81l-32.57,29.8s-5.09,4.63,2.46,5.14,49.68,2.54,49.68,2.54a17.14,17.14,0,0,0,9.24-3c4.45-3.1,35.23-34,35.23-34s3.85-3.57-2.52-3.81-50.7-1-50.7-1A16.82,16.82,0,0,0,200.86,50.81Z"/><path class="cls-10" d="M150.08,99.91l-36.13,33s-5.1,4.64,2.46,5.15l49.45,3.22a17.1,17.1,0,0,0,9.23-3c4.46-3.1,37-36.12,37-36.12s3.85-3.57-2.53-3.82-48.61-2.73-48.61-2.73A17.76,17.76,0,0,0,150.08,99.91Z"/><path class="cls-11" d="M225.63,103.08l-33.48,35.61s-5.09,4.64,2.46,5.14,55.41,4,55.41,4a17.12,17.12,0,0,0,9.23-3c4.45-3.1,35.94-38.62,35.94-38.62s3.85-3.57-2.53-3.82-56.21-3.72-56.21-3.72A16.08,16.08,0,0,0,225.63,103.08Z"/><path class="cls-10" d="M278.14,52.37l-32.67,32s-5.1,4.64,2.46,5.14,53,3.81,53,3.81a17.05,17.05,0,0,0,9.23-3c4.45-3.1,34.4-37.21,34.4-37.21s3.86-3.57-2.52-3.82S289,48,289,48A16,16,0,0,0,278.14,52.37Z"/><path class="cls-11" d="M311.84,106.54l-33.28,36.27s-5.1,4.64,2.46,5.14,63.11,4,63.11,4a17,17,0,0,0,9.23-3c4.46-3.1,33.24-41,33.24-41s3-3.59-2.52-3.82c-6.37-.26-61.41-2-61.41-2A14,14,0,0,0,311.84,106.54Z"/><path class="cls-12" d="M358.76,54.26l-28.51,32s-5.1,4.64,2.45,5.14,56.55,1.91,56.55,1.91a17.05,17.05,0,0,0,9.23-3c4.45-3.1,31.58-36.13,31.58-36.13s3-3.59-2.52-3.82c-6.38-.26-58-.44-58-.44A14.07,14.07,0,0,0,358.76,54.26Z"/><path class="cls-11" d="M404.29,6.51l-24.2,27.56s-5.09,4.63,2.46,5.14,53.63,1,53.63,1a17.1,17.1,0,0,0,9.23-3C449.87,34.09,472.67,6,472.67,6s3-3.59-2.52-3.81c-6.38-.26-55,0-55,0A14.06,14.06,0,0,0,404.29,6.51Z"/><path class="cls-11" d="M510.65,148.08s5.32-2.6,6.88,2.64c1.2,4,14.19,57.16,14.19,57.16s1.27,5.5-2.69,7.68-55.65,33.78-55.65,33.78a3.7,3.7,0,0,1-4.85-2c-1.56-3.35-18.69-59.15-18.69-59.15s-1-5,3.19-7.32S510.65,148.08,510.65,148.08Z"/><path class="cls-11" d="M533.34,228s5.31-2.6,6.88,2.63c1.19,4,13.21,55.08,13.21,55.08s1.27,5.5-2.69,7.67-56.3,34.12-56.3,34.12a3.71,3.71,0,0,1-4.85-2c-1.56-3.35-16.41-57.73-16.41-57.73s-1-5,3.18-7.31S533.34,228,533.34,228Z"/><path class="cls-12" d="M450.5,275.91s5.23-2.78,7,2.4c1.33,4,15.93,53.38,15.93,53.38s1.46,5.46-2.42,7.77l-58,34.51a3.72,3.72,0,0,1-4.92-1.81c-1.67-3.3-18.12-54.57-18.12-54.57s-1.19-5,2.94-7.41Z"/><path class="cls-11" d="M369.55,322.47s5.23-2.78,7,2.4c1.33,4,18.08,53.43,18.08,53.43s1.46,5.45-2.43,7.76-61.3,35.68-61.3,35.68a3.71,3.71,0,0,1-4.92-1.82c-1.67-3.29-20.75-54.17-20.75-54.17s-1.19-5,2.93-7.42S369.55,322.47,369.55,322.47Z"/><path class="cls-11" d="M340.37,244.79s5.23-2.78,7,2.4c1.33,4,19.59,56.7,19.59,56.7s1.46,5.45-2.42,7.76-62.78,35.25-62.78,35.25a3.71,3.71,0,0,1-4.92-1.82c-1.67-3.29-21.76-58.32-21.76-58.32s-1.19-5,2.93-7.41S340.37,244.79,340.37,244.79Z"/><path class="cls-11" d="M485.47,10.49s3.1-3.06,4.32.85C490.66,14.15,505,73.43,505,73.43a14.26,14.26,0,0,1-2.6,10.06c-3.52,4.77-27.09,31.3-27.09,31.3s-2.95,2.2-4.41-2.61-15.48-62.56-15.48-62.56a10,10,0,0,1,2.15-7.45C460.45,38.63,485.47,10.49,485.47,10.49Z"/><path class="cls-12" d="M443.55,58.1s3.1-3.07,4.32.84c.87,2.82,17.57,64.47,17.57,64.47a14.29,14.29,0,0,1-2.6,10.07c-3.52,4.77-29.58,35.75-29.58,35.75s-2.94,2.2-4.41-2.61-18.48-63-18.48-63a9.94,9.94,0,0,1,2.15-7.45C415.37,92.61,443.55,58.1,443.55,58.1Z"/><path class="cls-11" d="M396.7,112.82s3.1-3.06,4.32.85c.87,2.81,18.72,64.84,18.72,64.84a14.29,14.29,0,0,1-2.6,10.07c-3.52,4.77-33.82,39.1-33.82,39.1s-2.95,2.2-4.41-2.61-19-63.16-19-63.16a9.94,9.94,0,0,1,2.15-7.45C365,150.91,396.7,112.82,396.7,112.82Z"/><path class="cls-11" d="M272,164s-1.66-5.79,4.22-5.38c4.59.32,62,4,62,4s5.68.25,6.57,3.1c.76,2.42,18.8,62.66,18.8,62.66s3.19,9.35-3.69,8.86c-6-.43-58.41-5.84-58.41-5.84s-6.31-.31-7.69-3.87C292.61,224.4,272,164,272,164Z"/><path class="cls-12" d="M187.85,159.2s-1.6-5.39,4-5c4.35.33,57.26,4.88,57.26,4.88s5.39.27,6.24,2.92c.74,2.27,21.28,59.47,21.28,59.47s3.08,8.72-3.44,8.22c-5.65-.43-55-5.33-55-5.33s-6-.32-7.31-3.64C209.65,217.83,187.85,159.2,187.85,159.2Z"/><path class="cls-10" d="M108.29,152.42s-1.61-5.39,4-5c4.35.33,53.49,3.41,53.49,3.41s5.38.26,6.24,2.92c.73,2.26,21.12,59.94,21.12,59.94s3.08,8.71-3.45,8.22c-5.64-.43-51.24-4.71-51.24-4.71s-6-.32-7.32-3.65C129.94,210.66,108.29,152.42,108.29,152.42Z"/><path class="cls-11" d="M231.05,254.51l27.31,23.75s3.76,3.4,4.95,7,21.4,57,21.4,57,2.4,6.87-2.75,2.29c-4.28-3.79-30.43-28.61-30.43-28.61a13.85,13.85,0,0,1-3.73-5.56L227.59,255.9S225.85,249.79,231.05,254.51Z"/><path class="cls-11" d="M260.1,335.75l27.31,23.75s3.76,3.39,4.95,7,19.9,51.3,19.9,51.3,2.41,6.86-2.75,2.29c-4.27-3.79-31.25-29.51-31.25-29.51a13.85,13.85,0,0,1-3.73-5.56c-1.34-3.61-17.89-47.84-17.89-47.84S254.9,331,260.1,335.75Z"/><path class="cls-12" d="M218.76,294.91l26.5,26.25s3.76,3.39,5,7S266,373.54,266,373.54s2.41,6.87-2.75,2.29c-4.27-3.79-26.76-25.35-26.76-25.35a14,14,0,0,1-3.73-5.56c-1.34-3.62-17.45-48.62-17.45-48.62S213.56,290.18,218.76,294.91Z"/><path class="cls-10" d="M182.27,260.93l22.12,21.39s3.76,3.4,5,7,15.47,44.81,15.47,44.81,2.41,6.86-2.75,2.29c-4.27-3.8-22.38-21.2-22.38-21.2a14,14,0,0,1-3.73-5.56c-1.34-3.61-17.14-47.31-17.14-47.31S177.07,256.2,182.27,260.93Z"/><path class="cls-12" d="M367.53,246.62l15.5,47s2.1,5.69,8.22,2.2c5.36-3.06,57.42-33.65,57.42-33.65a7.47,7.47,0,0,0,2.89-8.92c-1.91-6.12-16.19-55.44-16.19-55.44s-2.36-6.3-7.69-3.86c-4.35,2-16.06,7.86-16.06,7.86a13.11,13.11,0,0,0-2.33,2.22c-.82,1.11-21.69,27.35-21.69,27.35S379.63,242.52,367.53,246.62Z"/><path class="cls-12" d="M205.31,269.52a24.64,24.64,0,0,0,5.58,8.93c4,4,27.15,25.83,27.15,25.83s4.92,4.3,2.29-2.32-20.15-53.86-20.15-53.86-1.43-4.52-4-6.8-14.95-12.87-14.95-12.87a11.58,11.58,0,0,0-5.28-2.07,52.88,52.88,0,0,0-6.1-.35s-1.55.31-1.19,1.14S205.31,269.52,205.31,269.52Z"/><path class="cls-10" d="M171.86,242.85a22.43,22.43,0,0,0,4.48,6.51c2.77,2.56,18.44,16.22,18.44,16.22s6,4.33,3.77-1.37-13.8-36.89-13.8-36.89-1.07-2.27-2.55-2.42-16.13-1.76-16.13-1.76-1.54.23-1.29,1.11S171.86,242.85,171.86,242.85Z"/><text class="cls-13" transform="matrix(0.93, 0.09, 0.26, 0.97, 294.14, 222.9)">A</text><text class="cls-14" transform="matrix(0.93, 0.06, 0.28, 0.96, 127.84, 209.82)">C</text><text class="cls-15" transform="matrix(0.94, 0.06, 0.28, 0.96, 208.29, 216.82)">C</text><path class="cls-11" d="M63.22,546.28,74.2,563C66,569.74,57,573.86,46.51,573.86,20,573.86,0,553.52,0,528.3s20-45.68,46.51-45.68c10.51,0,19.51,4.12,27.69,11l-11,16.6a26.47,26.47,0,0,0-16.71-6.11c-14,0-24.66,10.61-24.66,24.21s10.64,24.22,24.66,24.22C52.58,552.52,58.19,550.15,63.22,546.28Z"/><path class="cls-11" d="M80.36,550.52V512.08H100v35.69c0,6.87,4.91,9.49,8.3,9.49a9.14,9.14,0,0,0,9.34-9.11V512.08h19.64V572H117.63v-5.87c-3.5,4.25-9.81,7.74-15.89,7.74C87.49,573.86,80.36,565.12,80.36,550.52Z"/><path class="cls-11" d="M209.28,541.91c0,17.72-10.05,32-25.82,32-5.85,0-13.91-4-15.9-7.74V572H147.93V484.62h19.63v30.83a26.71,26.71,0,0,1,15.9-5.37C199.23,510.08,209.28,524.31,209.28,541.91Zm-19.63.12c0-7.74-4.67-13.85-10.87-13.85s-11.22,6.11-11.22,13.85,5,13.86,11.22,13.86S189.65,549.65,189.65,542Z"/><path class="cls-11" d="M269.23,533.55V572H249.59v-5.87c-3.5,5-9.23,7.74-16.47,7.74-3.27,0-16.48-2.25-17-17.6-.35-13,7.83-18.85,16-20.34a136.3,136.3,0,0,1,17.41-1.63c0-2.49-1.28-7.86-8.17-7.86-7.6,0-14.49,3.37-17.18,4.87l-5.38-13.61c4.21-3.12,14-7.61,25-7.61C256.37,510.08,269.23,515.07,269.23,533.55Zm-19.64,18.22v-6.49s-7.82-.38-11.21,2.25c-4.21,3.12-2.81,10.6,4,10.6C248,558.13,249.59,554.26,249.59,551.77Z"/><path class="cls-11" d="M336.74,533.55V572H317l.12-35.82c0-6.87-4.91-9.49-8.41-9.49s-9.12,2.37-9.23,9.11V572H279.72V512.08h19.75v5.74c3.38-4.12,9.7-7.74,15.89-7.74C329.61,510.08,336.74,518.82,336.74,533.55Z"/><path class="cls-10" d="M448.57,546.28l11,16.72c-8.18,6.74-17.17,10.86-27.69,10.86-26.53,0-46.51-20.34-46.51-45.56s20-45.68,46.51-45.68c10.52,0,19.51,4.12,27.69,11l-11,16.6a26.47,26.47,0,0,0-16.71-6.11c-14,0-24.66,10.61-24.66,24.21s10.64,24.22,24.66,24.22C437.93,552.52,443.54,550.15,448.57,546.28Z"/><path class="cls-10" d="M465.71,550.52V512.08h19.63v35.69c0,6.87,4.91,9.49,8.3,9.49a9.16,9.16,0,0,0,9.35-9.11V512.08h19.63V572H503v-5.87c-3.51,4.25-9.82,7.74-15.9,7.74C472.84,573.86,465.71,565.12,465.71,550.52Z"/><path class="cls-10" d="M594.63,541.91c0,17.72-10,32-25.82,32-5.85,0-13.91-4-15.89-7.74V572H533.28V484.62h19.64v30.83a26.66,26.66,0,0,1,15.89-5.37C584.58,510.08,594.63,524.31,594.63,541.91ZM575,542c0-7.74-4.67-13.85-10.87-13.85s-11.21,6.11-11.21,13.85,5,13.86,11.21,13.86S575,549.65,575,542Z"/><path class="cls-10" d="M621.65,549.4a12.62,12.62,0,0,0,9.58,7.86c7.83,1.25,13.79-2.75,15.31-4.74l7.59,11.36c-7.13,7-13.44,10-24,10-15.31,0-28.28-14.23-28.28-31.83s13-31.95,28.28-31.95,27.22,13,27.22,30.58a53.64,53.64,0,0,1-.58,8.74Zm-1.29-12.73h20.1c-1.05-5.87-5.14-8.74-10.28-8.74C625.5,527.93,621.76,531.17,620.36,536.67Z"/><path d="M59,666.37H31.91l-5.25,16.17H.66l32.23-91.27h25l32.35,91.27h-26Zm-7-21.12-6.59-20.08-6.59,20.08Z"/><path d="M147.15,664.42C147,676.15,139,684.5,121.88,684.5c-7.57,0-18.19-3.26-25.15-8.74L103,661.29c9.16,7.3,23,9.25,23.56,3.91,1-10-27.71-4.83-26.49-30.25.61-11.21,9.77-18.39,26.73-17.08,8.55.65,18,4.3,19.29,5.47l-6,14.61c-7.57-6.13-19.29-5.74-19.29-.26C120.9,646.55,147.15,642.38,147.15,664.42Z"/><path d="M204.08,664.42c-.12,11.73-8.17,20.08-25.26,20.08-7.57,0-18.19-3.26-25.15-8.74l6.22-14.47c9.16,7.3,23,9.25,23.56,3.91,1-10-27.71-4.83-26.49-30.25.62-11.21,9.77-18.39,26.74-17.08,8.54.65,17.94,4.3,19.29,5.47L197,638c-7.56-6.13-19.28-5.74-19.28-.26C177.84,646.55,204.08,642.38,204.08,664.42Z"/><path d="M274.43,651.25c0,18.38-14.52,33.25-31.73,33.25S211,669.63,211,651.25s14.53-33.38,31.74-33.38S274.43,632.73,274.43,651.25Zm-19.16,0c0-7.43-5.61-13.43-12.57-13.43s-12.58,6-12.58,13.43,5.62,13.3,12.58,13.3S255.27,658.55,255.27,651.25Z"/><path d="M327,659.72l10.86,14.74a32.46,32.46,0,0,1-23.43,10c-18.31,0-32.72-14.87-32.72-33.25s13.92-33.38,32.72-33.38a33.18,33.18,0,0,1,23.43,10l-11.59,14.34c-3.79-3-7.33-4.82-11.84-4.56-6.72.26-13.19,4.56-13.19,13.56,0,8.21,6.47,13.17,13.19,13.56C319.55,665.07,323.58,662.72,327,659.72Z"/><path d="M366.48,620v62.59H346V620Zm-20.39-18.12c0-6,4.52-10.82,10.14-10.82s10.13,4.82,10.13,10.82-4.52,10.82-10.13,10.82S346.09,607.83,346.09,601.83Z"/><path d="M431.15,642.38v40.16H410.64v-6.13c-3.66,5.22-9.64,8.09-17.21,8.09-3.42,0-17.21-2.35-17.7-18.39-.36-13.56,8.18-19.69,16.73-21.25a141.91,141.91,0,0,1,18.18-1.7c0-2.6-1.34-8.21-8.54-8.21-7.94,0-15.14,3.52-18,5.08l-5.61-14.21c4.39-3.26,14.65-8,26.12-8C417.72,617.87,431.15,623.08,431.15,642.38Zm-20.51,19v-6.78s-8.18-.39-11.72,2.34c-4.39,3.26-2.92,11.09,4.16,11.09C408.93,668.07,410.64,664,410.64,661.42Z"/><path d="M486.34,680.19c-2.32,1.57-9.28,4.31-17.82,4.31-18.92,0-21.36-15.39-21.36-32.6V639.64H439V620h8.18V606.52l20.63-2.73V620h15.13v19.69H467.79v11.74c0,11.86,5.25,15.38,14,10.82Z"/><path d="M515.75,620v62.59H495.24V620Zm-20.39-18.12c0-6,4.52-10.82,10.13-10.82s10.14,4.82,10.14,10.82-4.52,10.82-10.14,10.82S495.36,607.83,495.36,601.83Z"/><path d="M588.22,651.25c0,18.38-14.53,33.25-31.74,33.25s-31.74-14.87-31.74-33.25,14.53-33.38,31.74-33.38S588.22,632.73,588.22,651.25Zm-19.16,0c0-7.43-5.62-13.43-12.58-13.43s-12.57,6-12.57,13.43,5.61,13.3,12.57,13.3S569.06,658.55,569.06,651.25Z"/><path d="M657,642.38v40.16H636.37l.12-37.42c0-7.17-5.13-9.91-8.79-9.91s-9.52,2.48-9.64,9.52v37.81H597.43V620h20.63v6c3.54-4.3,10.13-8.08,16.6-8.08C649.55,617.87,657,627,657,642.38Z"/></g></g></svg>