<svg xmlns="http://www.w3.org/2000/svg" xmlns:xlink="http://www.w3.org/1999/xlink" viewBox="0 0 1167.11 429.23"><defs><style>.cls-1{fill:#1a171b;}.cls-2,.cls-3,.cls-4,.cls-5,.cls-6,.cls-7,.cls-8,.cls-9{opacity:0.3;}.cls-2{fill:url(#linear-gradient);}.cls-3{fill:url(#linear-gradient-2);}.cls-4{fill:url(#linear-gradient-3);}.cls-5{fill:url(#linear-gradient-4);}.cls-6{fill:url(#linear-gradient-5);}.cls-7{fill:url(#linear-gradient-6);}.cls-8{fill:url(#linear-gradient-7);}.cls-9{fill:url(#linear-gradient-8);}.cls-10,.cls-15{fill:#e2001a;}.cls-11,.cls-14{fill:#0037e0;}.cls-12,.cls-13{fill:#fff;}.cls-13,.cls-14{font-size:81.08px;}.cls-13,.cls-14,.cls-15{font-family:MADEGoodTimeGrotesk, MADE GoodTime Grotesk;}.cls-15{font-size:80.69px;}</style><linearGradient id="linear-gradient" x1="169.03" y1="-446.4" x2="164.69" y2="-448.34" gradientTransform="translate(-4.88 517.18) rotate(15.49)" gradientUnits="userSpaceOnUse"><stop offset="0"/><stop offset="0.09" stop-color="#040404"/><stop offset="0.18" stop-color="#101010"/><stop offset="0.27" stop-color="#242424"/><stop offset="0.36" stop-color="#404040"/><stop offset="0.45" stop-color="#646464"/><stop offset="0.51" stop-color="#7e7e7e"/><stop offset="0.56" stop-color="#626262"/><stop offset="0.65" stop-color="#3f3f3f"/><stop offset="0.73" stop-color="#232323"/><stop offset="0.82" stop-color="#101010"/><stop offset="0.91" stop-color="#040404"/><stop offset="1"/></linearGradient><linearGradient id="linear-gradient-2" x1="-262.27" y1="-695.41" x2="-266.61" y2="-697.35" gradientTransform="matrix(0.87, 0.56, -0.74, 0.88, -54.2, 1101.64)" xlink:href="#linear-gradient"/><linearGradient id="linear-gradient-3" x1="-1228.94" y1="2104.22" x2="-1232.05" y2="2102.84" gradientTransform="matrix(0.22, -1.01, 1.09, 0.38, -1884.37, -1781.48)" xlink:href="#linear-gradient"/><linearGradient id="linear-gradient-4" x1="-230.16" y1="-772.88" x2="-234.5" y2="-774.81" gradientTransform="matrix(0.87, 0.56, -0.74, 0.88, -54.2, 1101.64)" xlink:href="#linear-gradient"/><linearGradient id="linear-gradient-5" x1="-197.2" y1="-847.34" x2="-201.54" y2="-849.27" gradientTransform="matrix(0.87, 0.56, -0.74, 0.88, -54.2, 1101.64)" xlink:href="#linear-gradient"/><linearGradient id="linear-gradient-6" x1="-266.5" y1="-895.36" x2="-270.84" y2="-897.29" gradientTransform="matrix(0.87, 0.56, -0.74, 0.88, -54.2, 1101.64)" xlink:href="#linear-gradient"/><linearGradient id="linear-gradient-7" x1="184.78" y1="-549.54" x2="180.44" y2="-551.47" gradientTransform="matrix(0.96, 0.28, -0.28, 0.96, -10.6, 551.23)" xlink:href="#linear-gradient"/><linearGradient id="linear-gradient-8" x1="212.77" y1="-610.67" x2="208.43" y2="-612.6" gradientTransform="matrix(0.96, 0.28, -0.28, 0.96, -10.6, 551.23)" xlink:href="#linear-gradient"/></defs><g id="Capa_2" data-name="Capa 2"><g id="cases"><path class="cls-1" d="M.83,150.72a12.2,12.2,0,0,1,0-8.86A11,11,0,0,1,3.9,137.6c4.71-4,41.45-36.75,45.79-40.62a3,3,0,0,1,1.18-.64,5.65,5.65,0,0,1,5.15.89c2.71,2.16.87-.71.87-.71L56,95.19a2.55,2.55,0,0,1-.29-.57c-.38-1-1-3.72,1.64-6.6,3.07-3.28,37.57-33.66,43.6-39a11,11,0,0,1,2.87-1.85c1.59-.7,3.89-1.33,5.88-.47,3.45,1.52.66-1.23.66-1.23h0a3.69,3.69,0,0,1-1-2.26,5.19,5.19,0,0,1,1.93-4c3.16-3,39.48-34.84,40.81-36a.31.31,0,0,1,.09-.07A16.34,16.34,0,0,1,161.78,0c5,.07,45,.16,52.49.17a14.76,14.76,0,0,1,3.18.35c2.19.5,5.65,1.7,7.5,4.44,2.1,3.11,2.15,1,2-.28a3,3,0,0,1,.65-2.16A4.38,4.38,0,0,1,231,1C233.9.9,280.46.46,291.24.36a16.53,16.53,0,0,1,6.26,1.13c2.25.89,4.76,2.38,5.61,4.74.93,2.59,1.81,1.51,2.4.06a9.22,9.22,0,0,1,7.84-5.9c.28,0,.56,0,.86,0,6.38-.09,57.28-.27,60.62-.28l3,.07C382.5.41,388,2,389.92,7.15s15.84,62.9,17.06,68a2.61,2.61,0,0,1,.08.84A19.11,19.11,0,0,1,403,86.53c-4.3,5.57-24.73,29.7-24.73,29.7s-.66.84.13,1.22,32.74,14.42,34.85,15.35a2.29,2.29,0,0,1,.27.14c.93.53,5.51,3.5,7.56,11.38,2.21,8.51,14.79,61.84,15.56,65.08,0,.11,0,.22.05.33a16.57,16.57,0,0,1-.09,4.1,3.14,3.14,0,0,0,1.35,3.18,8.67,8.67,0,0,1,3.26,4.39c1.74,4.76,15.43,60.45,16.33,64.11a2.65,2.65,0,0,1,.07.48,9,9,0,0,1-3.86,8.05c-4.36,2.84-59.16,35.76-63.82,38.56a2.9,2.9,0,0,1-.81.34,12.7,12.7,0,0,1-5.79-.34,3.14,3.14,0,0,0-3.66,1.95c-.77,2.06-2.15,4.71-4.4,6.06-3.76,2.26-60,35.73-66.27,39.44a2.83,2.83,0,0,1-1.29.4,17.58,17.58,0,0,1-4.91-.39,3.12,3.12,0,0,0-3.67,2.07c-.63,2-1.68,4.39-3.27,5.32-2.79,1.63-65.83,37.95-71.3,41.1a3.16,3.16,0,0,1-.9.34c-1.55.32-6.21,1-8.67-1.49-3-3-116.13-111.07-116.13-111.07a23.43,23.43,0,0,1-5.34-8.12c-2-5.13-19-54.79-19-54.79s-1.09-2.72,3.25-3.94c3.77-1.06.37-1.47-.58-1.55a1.77,1.77,0,0,0-.4,0c-.71,0-3.35.11-4.14-1.28s-6.76-16.76-8.81-22.06a3.14,3.14,0,0,0-2.58-2l-26.07-2.78a25.83,25.83,0,0,1-6.44-1.56,4.76,4.76,0,0,1-3.13-2.49C24.48,213.75,5.14,162.23.83,150.72Z"/><path class="cls-2" d="M273.6,129.12c-9.31,11.29-16,21.12-15,21.95s9.38-7.64,18.68-18.93,16-21.13,15-22S282.91,117.82,273.6,129.12Z"/><path class="cls-3" d="M232.72,335.42c-15.1,8.49-26.82,16.3-26.17,17.44s13.4-4.81,28.5-13.3,26.82-16.31,26.18-17.45S247.83,326.92,232.72,335.42Z"/><path class="cls-4" d="M144.88,262.17c9.52,7.94,17.72,13.79,18.32,13.07s-6.63-7.74-16.15-15.68-17.72-13.79-18.32-13.06S135.36,254.23,144.88,262.17Z"/><path class="cls-5" d="M318.14,284.88c-15.1,8.5-26.82,16.31-26.18,17.45s13.41-4.81,28.51-13.31,26.82-16.3,26.18-17.44S333.24,276.39,318.14,284.88Z"/><path class="cls-6" d="M402.07,237.48c-15.1,8.49-26.82,16.3-26.18,17.44s13.41-4.81,28.51-13.3,26.82-16.3,26.17-17.44S417.17,229,402.07,237.48Z"/><path class="cls-7" d="M377.63,156.18c-15.1,8.49-26.82,16.3-26.18,17.45s13.41-4.82,28.51-13.31,26.82-16.3,26.18-17.44S392.73,147.69,377.63,156.18Z"/><path class="cls-8" d="M319.06,73.72c-9.5,11.13-16.4,20.84-15.4,21.69s9.51-7.47,19-18.6,16.4-20.84,15.4-21.7S328.57,62.59,319.06,73.72Z"/><path class="cls-9" d="M363.26,23.06c-9.5,11.12-16.4,20.84-15.4,21.69s9.51-7.48,19-18.61,16.4-20.84,15.4-21.69S372.77,11.93,363.26,23.06Z"/><path class="cls-10" d="M152.92,5.29,122.43,31.46s-4.73,4.14,2.47,4.66,48.1,1.7,48.1,1.7a16.45,16.45,0,0,0,8.7-2.62c4.15-2.76,32.61-29.88,32.61-29.88s3.57-3.19-2.49-3.46-48.73-.4-48.73-.4S157.1,1.69,152.92,5.29Z"/><path class="cls-11" d="M223.89,6.56,198,33.8s-4.72,4.15,2.47,4.67,48.85,1.41,48.85,1.41a16.47,16.47,0,0,0,8.7-2.62C262.13,34.5,286.6,6.35,286.6,6.35s3.57-3.19-2.5-3.46-50-.16-50-.16A14.8,14.8,0,0,0,223.89,6.56Z"/><path class="cls-10" d="M101,50.81,68.39,80.61s-5.1,4.63,2.46,5.14,49.68,2.54,49.68,2.54a17.1,17.1,0,0,0,9.23-3c4.46-3.1,35.23-34,35.23-34s3.86-3.57-2.52-3.81-50.69-1-50.69-1A16.81,16.81,0,0,0,101,50.81Z"/><path class="cls-10" d="M50.18,99.91l-36.13,33S9,137.5,16.5,138L66,141.23a17.12,17.12,0,0,0,9.23-3c4.45-3.1,37-36.12,37-36.12s3.86-3.57-2.52-3.82S61,95.57,61,95.57A17.72,17.72,0,0,0,50.18,99.91Z"/><path class="cls-11" d="M125.72,103.08,92.25,138.69s-5.1,4.64,2.46,5.14,55.4,4,55.4,4a17.1,17.1,0,0,0,9.23-3c4.46-3.1,35.94-38.62,35.94-38.62s3.86-3.57-2.52-3.82-56.22-3.72-56.22-3.72A16.08,16.08,0,0,0,125.72,103.08Z"/><path class="cls-10" d="M178.23,52.37l-32.67,32S140.47,89,148,89.5s53,3.81,53,3.81a17,17,0,0,0,9.23-3c4.46-3.1,34.41-37.21,34.41-37.21s3.85-3.57-2.53-3.82S189.05,48,189.05,48A16.06,16.06,0,0,0,178.23,52.37Z"/><path class="cls-11" d="M211.94,106.54l-33.29,36.27s-5.1,4.64,2.46,5.14,63.12,4,63.12,4a17.05,17.05,0,0,0,9.23-3c4.45-3.1,33.24-41,33.24-41s3-3.59-2.52-3.82c-6.38-.26-61.42-2-61.42-2A14,14,0,0,0,211.94,106.54Z"/><path class="cls-12" d="M258.85,54.26l-28.51,32s-5.1,4.64,2.46,5.14,56.54,1.91,56.54,1.91a17,17,0,0,0,9.23-3c4.46-3.1,31.59-36.13,31.59-36.13s3-3.59-2.53-3.82c-6.37-.26-58-.44-58-.44A14.07,14.07,0,0,0,258.85,54.26Z"/><path class="cls-11" d="M304.38,6.51,280.19,34.07s-5.1,4.63,2.46,5.14,53.63,1,53.63,1a17.12,17.12,0,0,0,9.23-3C350,34.09,372.77,6,372.77,6s3-3.59-2.53-3.81c-6.37-.26-55,0-55,0A14.06,14.06,0,0,0,304.38,6.51Z"/><path class="cls-11" d="M410.75,148.08s5.32-2.6,6.88,2.64c1.19,4,14.18,57.16,14.18,57.16s1.27,5.5-2.69,7.68-55.64,33.78-55.64,33.78a3.71,3.71,0,0,1-4.86-2c-1.55-3.35-18.68-59.15-18.68-59.15s-1-5,3.18-7.32S410.75,148.08,410.75,148.08Z"/><path class="cls-11" d="M433.43,228s5.32-2.6,6.88,2.63c1.2,4,13.21,55.08,13.21,55.08s1.28,5.5-2.68,7.67-56.31,34.12-56.31,34.12a3.71,3.71,0,0,1-4.85-2c-1.56-3.35-16.4-57.73-16.4-57.73s-1-5,3.18-7.31S433.43,228,433.43,228Z"/><path class="cls-12" d="M350.6,275.91s5.22-2.78,7,2.4c1.33,4,15.94,53.38,15.94,53.38s1.45,5.46-2.43,7.77L313,374a3.71,3.71,0,0,1-4.92-1.81c-1.67-3.3-18.12-54.57-18.12-54.57s-1.19-5,2.93-7.41Z"/><path class="cls-11" d="M269.65,322.47s5.23-2.78,7,2.4c1.34,4,18.08,53.43,18.08,53.43s1.46,5.45-2.42,7.76S231,421.74,231,421.74a3.71,3.71,0,0,1-4.92-1.82c-1.67-3.29-20.75-54.17-20.75-54.17s-1.19-5,2.93-7.42S269.65,322.47,269.65,322.47Z"/><path class="cls-11" d="M240.46,244.79s5.23-2.78,7,2.4c1.33,4,19.6,56.7,19.6,56.7s1.46,5.45-2.43,7.76-62.77,35.25-62.77,35.25a3.71,3.71,0,0,1-4.92-1.82c-1.67-3.29-21.76-58.32-21.76-58.32s-1.19-5,2.93-7.41S240.46,244.79,240.46,244.79Z"/><path class="cls-11" d="M385.56,10.49s3.11-3.06,4.32.85c.88,2.81,15.24,62.09,15.24,62.09a14.29,14.29,0,0,1-2.61,10.06c-3.51,4.77-27.08,31.3-27.08,31.3s-2.95,2.2-4.41-2.61-15.48-62.56-15.48-62.56a9.94,9.94,0,0,1,2.15-7.45C360.55,38.63,385.56,10.49,385.56,10.49Z"/><path class="cls-12" d="M343.64,58.1s3.11-3.07,4.32.84c.88,2.82,17.58,64.47,17.58,64.47a14.35,14.35,0,0,1-2.6,10.07c-3.52,4.77-29.58,35.75-29.58,35.75s-2.95,2.2-4.41-2.61-18.49-63-18.49-63a10,10,0,0,1,2.15-7.45C315.47,92.61,343.64,58.1,343.64,58.1Z"/><path class="cls-11" d="M296.8,112.82s3.1-3.06,4.31.85c.88,2.81,18.73,64.84,18.73,64.84a14.35,14.35,0,0,1-2.6,10.07c-3.52,4.77-33.83,39.1-33.83,39.1s-2.94,2.2-4.41-2.61-19-63.16-19-63.16a10,10,0,0,1,2.15-7.45C265.05,150.91,296.8,112.82,296.8,112.82Z"/><path class="cls-11" d="M172.08,164s-1.66-5.79,4.22-5.38c4.6.32,62,4,62,4s5.68.25,6.57,3.1c.75,2.42,18.8,62.66,18.8,62.66s3.19,9.35-3.7,8.86c-6-.43-58.4-5.84-58.4-5.84s-6.32-.31-7.7-3.87C192.71,224.4,172.08,164,172.08,164Z"/><path class="cls-12" d="M88,159.2s-1.61-5.39,4-5c4.36.33,57.27,4.88,57.27,4.88s5.38.27,6.24,2.92c.73,2.27,21.28,59.47,21.28,59.47s3.08,8.72-3.45,8.22c-5.64-.43-55-5.33-55-5.33s-6-.32-7.31-3.64C109.75,217.83,88,159.2,88,159.2Z"/><path class="cls-10" d="M8.39,152.42s-1.61-5.39,4-5c4.36.33,53.49,3.41,53.49,3.41s5.39.26,6.25,2.92c.73,2.26,21.12,59.94,21.12,59.94s3.07,8.71-3.45,8.22c-5.65-.43-51.25-4.71-51.25-4.71s-6-.32-7.31-3.65C30,210.66,8.39,152.42,8.39,152.42Z"/><path class="cls-11" d="M131.15,254.51l27.31,23.75s3.76,3.4,4.95,7,21.39,57,21.39,57,2.41,6.87-2.75,2.29c-4.27-3.79-30.43-28.61-30.43-28.61a13.89,13.89,0,0,1-3.72-5.56c-1.34-3.62-20.22-54.45-20.22-54.45S125.94,249.79,131.15,254.51Z"/><path class="cls-11" d="M160.2,335.75l27.31,23.75s3.76,3.39,5,7,19.9,51.3,19.9,51.3,2.4,6.86-2.76,2.29c-4.27-3.79-31.25-29.51-31.25-29.51a13.89,13.89,0,0,1-3.72-5.56c-1.34-3.61-17.9-47.84-17.9-47.84S155,331,160.2,335.75Z"/><path class="cls-12" d="M118.85,294.91l26.5,26.25s3.76,3.39,5,7,15.79,45.42,15.79,45.42,2.4,6.87-2.75,2.29c-4.27-3.79-26.76-25.35-26.76-25.35a13.85,13.85,0,0,1-3.73-5.56c-1.34-3.62-17.46-48.62-17.46-48.62S113.65,290.18,118.85,294.91Z"/><path class="cls-10" d="M82.37,260.93l22.11,21.39s3.76,3.4,5,7,15.48,44.81,15.48,44.81,2.4,6.86-2.75,2.29c-4.27-3.8-22.39-21.2-22.39-21.2a13.89,13.89,0,0,1-3.72-5.56C94.71,306,78.9,262.32,78.9,262.32S77.17,256.2,82.37,260.93Z"/><path class="cls-12" d="M267.62,246.62l15.5,47s2.11,5.69,8.22,2.2c5.37-3.06,57.43-33.65,57.43-33.65a7.48,7.48,0,0,0,2.89-8.92c-1.92-6.12-16.2-55.44-16.2-55.44s-2.35-6.3-7.68-3.86c-4.35,2-16.07,7.86-16.07,7.86a12.84,12.84,0,0,0-2.32,2.22c-.82,1.11-21.7,27.35-21.7,27.35S279.72,242.52,267.62,246.62Z"/><path class="cls-12" d="M105.4,269.52a24.64,24.64,0,0,0,5.58,8.93c4,4,27.16,25.83,27.16,25.83s4.92,4.3,2.28-2.32-20.15-53.86-20.15-53.86-1.42-4.52-4-6.8-14.94-12.87-14.94-12.87A11.65,11.65,0,0,0,96,226.36a53.09,53.09,0,0,0-6.11-.35s-1.54.31-1.18,1.14S105.4,269.52,105.4,269.52Z"/><path class="cls-10" d="M72,242.85a22.21,22.21,0,0,0,4.48,6.51c2.76,2.56,18.44,16.22,18.44,16.22s6,4.33,3.77-1.37-13.81-36.89-13.81-36.89-1.06-2.27-2.54-2.42-16.14-1.76-16.14-1.76-1.53.23-1.29,1.11S72,242.85,72,242.85Z"/><text class="cls-13" transform="matrix(0.93, 0.09, 0.26, 0.97, 194.23, 222.9)">A</text><text class="cls-14" transform="matrix(0.93, 0.06, 0.28, 0.96, 27.94, 209.82)">C</text><text class="cls-15" transform="matrix(0.94, 0.06, 0.28, 0.96, 108.38, 216.82)">C</text><path class="cls-11" d="M572.92,153.33l11,16.73c-8.18,6.74-17.18,10.86-27.69,10.86-26.53,0-46.51-20.35-46.51-45.56s20-45.68,46.51-45.68c10.51,0,19.51,4.11,27.69,11l-11,16.6a26.46,26.46,0,0,0-16.71-6.12c-14,0-24.66,10.61-24.66,24.22s10.64,24.21,24.66,24.21C562.29,159.57,567.89,157.2,572.92,153.33Z"/><path class="cls-11" d="M590.06,157.58V119.13h19.63v35.7c0,6.86,4.91,9.49,8.3,9.49a9.17,9.17,0,0,0,9.35-9.12V119.13H647V179H627.34v-5.86c-3.51,4.24-9.82,7.74-15.9,7.74C597.19,180.92,590.06,172.18,590.06,157.58Z"/><path class="cls-11" d="M719,149c0,17.73-10.05,32-25.82,32-5.84,0-13.91-4-15.89-7.74V179H657.63V91.67h19.64V122.5a26.67,26.67,0,0,1,15.89-5.36C708.93,117.14,719,131.36,719,149Zm-19.63.13c0-7.74-4.67-13.86-10.87-13.86s-11.21,6.12-11.21,13.86,5,13.85,11.21,13.85S699.35,156.7,699.35,149.09Z"/><path class="cls-11" d="M778.93,140.6V179H759.3v-5.86c-3.51,5-9.24,7.74-16.48,7.74-3.27,0-16.48-2.25-16.94-17.6-.35-13,7.83-18.85,16-20.35a134.34,134.34,0,0,1,17.42-1.62c0-2.5-1.29-7.86-8.18-7.86-7.6,0-14.49,3.37-17.18,4.86l-5.38-13.6c4.21-3.12,14-7.61,25-7.61C766.07,117.14,778.93,122.13,778.93,140.6ZM759.3,158.82v-6.49s-7.83-.37-11.22,2.25c-4.21,3.12-2.81,10.61,4,10.61C757.66,165.19,759.3,161.32,759.3,158.82Z"/><path class="cls-11" d="M846.44,140.6V179H826.7l.11-35.82c0-6.86-4.91-9.48-8.41-9.48s-9.12,2.37-9.23,9.11V179H789.42V119.13h19.75v5.74c3.39-4.12,9.7-7.73,15.89-7.73C839.32,117.14,846.44,125.87,846.44,140.6Z"/><path class="cls-10" d="M958.27,153.33l11,16.73c-8.18,6.74-17.17,10.86-27.69,10.86-26.53,0-46.51-20.35-46.51-45.56s20-45.68,46.51-45.68c10.52,0,19.51,4.11,27.69,11l-11,16.6a26.46,26.46,0,0,0-16.71-6.12c-14,0-24.66,10.61-24.66,24.22s10.64,24.21,24.66,24.21C947.64,159.57,953.24,157.2,958.27,153.33Z"/><path class="cls-10" d="M975.41,157.58V119.13H995v35.7c0,6.86,4.91,9.49,8.3,9.49a9.17,9.17,0,0,0,9.35-9.12V119.13h19.63V179h-19.63v-5.86c-3.51,4.24-9.82,7.74-15.89,7.74C982.54,180.92,975.41,172.18,975.41,157.58Z"/><path class="cls-10" d="M1104.33,149c0,17.73-10,32-25.82,32-5.84,0-13.91-4-15.89-7.74V179H1043V91.67h19.63V122.5a26.67,26.67,0,0,1,15.89-5.36C1094.28,117.14,1104.33,131.36,1104.33,149Zm-19.63.13c0-7.74-4.67-13.86-10.86-13.86s-11.22,6.12-11.22,13.86,5,13.85,11.22,13.85S1084.7,156.7,1084.7,149.09Z"/><path class="cls-10" d="M1131.35,156.45a12.64,12.64,0,0,0,9.58,7.87c7.83,1.24,13.79-2.75,15.31-4.75l7.59,11.36c-7.12,7-13.43,10-23.95,10-15.31,0-28.28-14.23-28.28-31.83s13-31.95,28.28-31.95,27.23,13,27.23,30.58a53.59,53.59,0,0,1-.59,8.73Zm-1.29-12.73h20.1c-1.05-5.86-5.14-8.74-10.28-8.74C1135.21,135,1131.47,138.23,1130.06,143.72Z"/><path d="M568.71,273.43h-27.1l-5.25,16.16h-26l32.23-91.27h25L600,289.59H574Zm-7-21.13-6.6-20.08-6.59,20.08Z"/><path d="M656.85,271.47c-.12,11.74-8.18,20.08-25.27,20.08-7.57,0-18.19-3.26-25.14-8.74l6.22-14.47c9.16,7.3,23,9.26,23.56,3.91,1-10-27.71-4.82-26.49-30.25.61-11.21,9.77-18.38,26.73-17.08,8.55.66,17.95,4.31,19.29,5.48l-6,14.6c-7.57-6.12-19.29-5.73-19.29-.26C630.61,253.61,656.85,249.44,656.85,271.47Z"/><path d="M713.79,271.47c-.13,11.74-8.18,20.08-25.27,20.08-7.57,0-18.19-3.26-25.15-8.74l6.23-14.47c9.15,7.3,22.95,9.26,23.56,3.91,1-10-27.71-4.82-26.49-30.25.61-11.21,9.76-18.38,26.73-17.08,8.54.66,17.94,4.31,19.29,5.48l-6,14.6c-7.57-6.12-19.29-5.73-19.29-.26C687.54,253.61,713.79,249.44,713.79,271.47Z"/><path d="M784.14,258.3c0,18.39-14.53,33.25-31.74,33.25s-31.74-14.86-31.74-33.25,14.53-33.38,31.74-33.38S784.14,239.79,784.14,258.3Zm-19.17,0c0-7.43-5.61-13.43-12.57-13.43s-12.57,6-12.57,13.43,5.61,13.3,12.57,13.3S765,265.6,765,258.3Z"/><path d="M836.7,266.78l10.87,14.73a32.46,32.46,0,0,1-23.44,10c-18.31,0-32.72-14.86-32.72-33.25s13.92-33.38,32.72-33.38a33.24,33.24,0,0,1,23.44,10L836,249.31c-3.79-3-7.33-4.83-11.84-4.57-6.72.26-13.19,4.57-13.19,13.56,0,8.22,6.47,13.17,13.19,13.56C829.26,272.12,833.28,269.78,836.7,266.78Z"/><path d="M876.18,227v62.58H855.67V227ZM855.8,208.89c0-6,4.51-10.83,10.13-10.83s10.13,4.83,10.13,10.83-4.52,10.82-10.13,10.82S855.8,214.88,855.8,208.89Z"/><path d="M940.85,249.44v40.15H920.34v-6.12c-3.66,5.21-9.64,8.08-17.21,8.08-3.42,0-17.21-2.35-17.7-18.38-.36-13.56,8.18-19.69,16.73-21.26a141.75,141.75,0,0,1,18.18-1.69c0-2.61-1.34-8.22-8.54-8.22-7.93,0-15.14,3.52-17.94,5.09l-5.62-14.21c4.39-3.26,14.65-8,26.12-8C927.42,224.92,940.85,230.14,940.85,249.44Zm-20.51,19v-6.78s-8.17-.39-11.71,2.35c-4.4,3.26-2.93,11.08,4.15,11.08C918.64,275.12,920.34,271.08,920.34,268.47Z"/><path d="M996,287.25c-2.32,1.56-9.28,4.3-17.82,4.3-18.92,0-21.36-15.38-21.36-32.6V246.7h-8.18V227h8.18V213.58l20.63-2.74V227h15.13V246.7H977.49v11.73c0,11.87,5.25,15.39,14,10.82Z"/><path d="M1025.45,227v62.58h-20.51V227Zm-20.39-18.12c0-6,4.52-10.83,10.14-10.83s10.13,4.83,10.13,10.83-4.52,10.82-10.13,10.82S1005.06,214.88,1005.06,208.89Z"/><path d="M1097.92,258.3c0,18.39-14.52,33.25-31.74,33.25s-31.73-14.86-31.73-33.25,14.52-33.38,31.73-33.38S1097.92,239.79,1097.92,258.3Zm-19.16,0c0-7.43-5.62-13.43-12.58-13.43s-12.57,6-12.57,13.43,5.62,13.3,12.57,13.3S1078.76,265.6,1078.76,258.3Z"/><path d="M1166.7,249.44v40.15h-20.63l.12-37.42c0-7.17-5.13-9.91-8.79-9.91s-9.52,2.48-9.64,9.52v37.81h-20.63V227h20.63v6c3.54-4.31,10.13-8.09,16.6-8.09C1159.25,224.92,1166.7,234.05,1166.7,249.44Z"/></g></g></svg>