<svg xmlns="http://www.w3.org/2000/svg" xmlns:xlink="http://www.w3.org/1999/xlink" viewBox="0 0 457.6 429.2">
  <defs><style>.cls-10{fill:#e2001a}.cls-11{fill:#0037e0}.cls-12{fill:#fff}</style></defs>
  <g id="Capa_2" data-name="Capa 2">
    <g id="cases">
      <path d="M1 151a12 12 0 0 1 0-9 11 11 0 0 1 3-4l46-41a3 3 0 0 1 1-1 6 6 0 0 1 5 1c3 2 1 0 1 0l-1-2c-1-1-1-4 1-7l44-39a11 11 0 0 1 3-2h6c3 1 0-2 0-2a4 4 0 0 1-1-2 5 5 0 0 1 2-4l41-36a16 16 0 0 1 10-3h52a15 15 0 0 1 3 1c3 0 6 1 8 4s2 1 2 0a3 3 0 0 1 1-2 4 4 0 0 1 3-2l60-1a17 17 0 0 1 7 1l5 5c1 3 2 2 3 0a9 9 0 0 1 7-6h65c5 0 10 2 12 7l17 68a3 3 0 0 1 0 1 19 19 0 0 1-4 11l-25 29v1l35 16a2 2 0 0 1 1 0s5 3 7 11l16 65v1a17 17 0 0 1 0 4 3 3 0 0 0 1 3 9 9 0 0 1 3 4l17 65a9 9 0 0 1-4 8l-64 39a3 3 0 0 1-1 0 13 13 0 0 1-6 0 3 3 0 0 0-3 2c-1 2-2 4-5 6l-66 39a3 3 0 0 1-1 0 18 18 0 0 1-5 0 3 3 0 0 0-4 2l-3 5-71 42a3 3 0 0 1-1 0c-2 0-7 1-9-2L99 316a23 23 0 0 1-5-8l-19-55s-2-2 3-4c4-1 0-1-1-1l-4-1-9-22a3 3 0 0 0-3-2l-26-3a26 26 0 0 1-6-2 5 5 0 0 1-3-2c-2-2-21-54-25-65Z" style="fill:#1a171b"/>
      <path class="cls-10" d="m153 5-31 26s-4 5 3 5l48 2a16 16 0 0 0 9-3l32-30s4-3-2-3l-49-1s-6 1-10 4Z"/>
      <path class="cls-11" d="m224 7-26 27s-5 4 2 4l49 2a16 16 0 0 0 9-3c4-2 29-31 29-31s3-3-3-3h-50a15 15 0 0 0-10 4Z"/>
      <path class="cls-10" d="M101 51 68 81s-5 4 3 5l50 2a17 17 0 0 0 9-3l35-34s4-3-3-4l-50-1a17 17 0 0 0-11 5Zm-51 49-36 33s-5 5 3 5l49 3a17 17 0 0 0 9-3c5-3 37-36 37-36s4-3-2-4l-49-2a18 18 0 0 0-11 4Z"/>
      <path class="cls-11" d="m126 103-34 36s-5 4 3 5l55 4a17 17 0 0 0 9-3c5-3 36-39 36-39s4-3-2-4l-56-3a16 16 0 0 0-11 4Z"/>
      <path class="cls-10" d="m178 52-32 32s-6 5 2 6l53 3a17 17 0 0 0 9-3c5-3 35-37 35-37s3-3-3-4l-53-1a16 16 0 0 0-11 4Z"/>
      <path class="cls-11" d="m212 107-33 36s-5 4 2 5l63 4a17 17 0 0 0 9-3c5-3 34-41 34-41s3-4-3-4l-61-2a14 14 0 0 0-11 5Z"/>
      <path class="cls-12" d="m259 54-29 32s-5 5 3 5l56 2a17 17 0 0 0 10-3c4-3 31-36 31-36s3-3-2-4h-58a14 14 0 0 0-11 4Z"/>
      <path class="cls-11" d="m304 7-24 27s-5 5 3 5l53 1a17 17 0 0 0 10-3c4-3 27-31 27-31s3-4-3-4h-55a14 14 0 0 0-11 5Zm107 141s5-3 7 3l14 57s1 5-3 8l-56 33a4 4 0 0 1-4-2l-19-59s-1-5 3-7l58-33Zm22 80s6-3 7 3l14 55s1 5-3 7l-56 34a4 4 0 0 1-5-1l-17-58s-1-5 3-8l57-32Z"/>
      <path class="cls-12" d="M351 276s5-3 7 2l16 54s1 5-3 7l-58 35a4 4 0 0 1-5-2l-18-54s-1-5 3-8Z"/>
      <path class="cls-11" d="M270 322s5-2 7 3l18 53s1 6-3 8l-61 36a4 4 0 0 1-5-2l-21-54s-1-5 3-8l62-36Zm-30-77s6-3 7 2l20 57s2 5-2 8l-63 35a4 4 0 0 1-5-2l-22-58s-1-5 3-8l62-34ZM386 10s3-3 4 1l15 62a14 14 0 0 1-2 10l-28 32s-3 2-4-3l-15-62a10 10 0 0 1 2-8l28-32Z"/>
      <path class="cls-12" d="M344 58s3-3 4 1l18 64a14 14 0 0 1-3 10l-30 36s-3 2-4-2l-19-63a10 10 0 0 1 3-8l31-38Z"/>
      <path class="cls-11" d="M297 113s3-3 4 1l19 65a14 14 0 0 1-3 10l-34 39s-3 2-4-3l-19-63a10 10 0 0 1 2-8l35-41Zm-125 51s-2-6 4-5l62 4s6 0 7 3l19 62s3 10-4 9l-58-6s-7 0-8-3l-22-64Z"/>
      <path class="cls-12" d="M88 159s-2-5 4-5l57 5s6 0 7 3l21 59s3 9-4 9l-55-6s-6 0-7-3l-23-62Z"/>
      <path class="cls-10" d="M8 152s-1-5 4-5l54 4s5 0 6 3l21 60s3 8-3 8l-51-5s-6 0-8-3L8 152Z"/>
      <path class="cls-11" d="m131 255 27 23 5 7 22 57s2 7-3 3l-30-29a14 14 0 0 1-4-6l-20-54s-2-6 3-1Zm29 81 28 24 5 7 19 51s3 7-2 2l-32-29a14 14 0 0 1-3-6l-18-48s-2-6 3-1Z"/>
      <path class="cls-12" d="m119 295 26 26 5 7 16 46s3 6-3 2l-26-25a14 14 0 0 1-4-6l-18-49s-1-6 4-1Z"/>
      <path class="cls-10" d="m82 261 22 21 5 7 16 45s2 7-3 2l-22-21a14 14 0 0 1-4-5l-17-48s-2-6 3-1Z"/>
      <path class="cls-12" d="m268 247 15 47s2 5 8 2l58-34a7 7 0 0 0 3-9l-17-55s-2-6-7-4l-16 8a13 13 0 0 0-3 2l-21 27s-8 12-20 16Zm-163 23a25 25 0 0 0 6 8l27 26s5 5 2-2l-20-54s-1-4-4-7l-15-13a12 12 0 0 0-5-2 53 53 0 0 0-6 0s-2 0-1 1l16 43Z"/>
      <path class="cls-10" d="M72 243a22 22 0 0 0 4 6l19 17s6 4 4-2l-14-37s-1-2-3-2l-16-2-1 1 7 19Z"/>
      <text transform="matrix(.93 .09 .26 .97 194 223)" style="font-family:MADEGoodTimeGrotesk,MADE GoodTime Grotesk;font-size:81.08px;fill:#fff">A</text>
      <text transform="matrix(.93 .06 .28 .96 28 210)" style="font-family:MADEGoodTimeGrotesk,MADE GoodTime Grotesk;font-size:81.08px;fill:#0037e0">C</text>
      <text transform="matrix(.94 .06 .28 .96 108 217)" style="font-size:80.69px;font-family:MADEGoodTimeGrotesk,MADE GoodTime Grotesk;fill:#e2001a">C</text>
    </g>
  </g>
</svg>
